<?xml version="1.0" encoding="UTF-8"?>
<svg width="306px" height="306px" viewBox="0 0 306 306" version="1.1" xmlns="http://www.w3.org/2000/svg" xmlns:xlink="http://www.w3.org/1999/xlink">
    <!-- Generator: Sketch 48.2 (47327) - http://www.bohemiancoding.com/sketch -->
    <title>Oops</title>
    <desc>Created with Sketch.</desc>
    <defs></defs>
    <g id="icons" stroke="none" stroke-width="1" fill="none" fill-rule="evenodd">
        <g id="Oops">
            <circle id="Oval" stroke="#00A3E0" stroke-width="7" cx="153" cy="150" r="86.5"></circle>
            <circle id="Oval" stroke="#00A3E0" stroke-width="2" cx="153" cy="150" r="78"></circle>
            <g id="facts" transform="translate(157.000000, 149.000000) scale(-1, 1) translate(-157.000000, -149.000000) translate(104.000000, 106.000000)">
                <path d="M0,43.0437214 C0,19.4557848 19.1742861,0.334258111 42.8273058,0.334258111 C66.4803254,0.334258111 85.6546115,19.4557848 85.6546115,43.0437214 C85.6546115,66.6316581 66.4803254,85.7531848 42.8273058,85.7531848 C19.1742861,85.7531848 0,66.6316581 0,43.0437214" id="Fill-1" fill="#DFF4FB"></path>
                <path d="M98.332154,79.2330319 L83.4917947,64.4335069 C81.7905486,62.7369419 81.7905486,59.9866619 83.4917947,58.2900969 L83.4917947,58.2900969 C85.1921066,56.5935319 87.9509093,56.5935319 89.6512212,58.2900969 L104.492515,73.0896219 C106.193761,74.7861869 106.193761,77.5364669 104.492515,79.2330319 L104.492515,79.2330319 C102.791269,80.9295969 100.0334,80.9295969 98.332154,79.2330319" id="Fill-4" fill="#FFFFFF"></path>
                <path d="M98.332154,79.2330319 L83.4917947,64.4335069 C81.7905486,62.7369419 81.7905486,59.9866619 83.4917947,58.2900969 L83.4917947,58.2900969 C85.1921066,56.5935319 87.9509093,56.5935319 89.6512212,58.2900969 L104.492515,73.0896219 C106.193761,74.7861869 106.193761,77.5364669 104.492515,79.2330319 L104.492515,79.2330319 C102.791269,80.9295969 100.0334,80.9295969 98.332154,79.2330319 Z" id="Stroke-6" stroke="#00A3E0" stroke-width="3.276"></path>
                <path d="M47.2259177,22.1186044 C57.6753618,11.6979128 74.6186892,11.6979128 85.0681333,22.1186044 C95.5185116,32.5392961 95.5185116,49.4360028 85.0681333,59.8566944 C74.6186892,70.2783178 57.6753618,70.2783178 47.2259177,59.8566944 C36.7764736,49.4360028 36.7764736,32.5392961 47.2259177,22.1186044" id="Fill-8" fill="#DFF4FB"></path>
                <path d="M47.2259177,22.1186044 C57.6753618,11.6979128 74.6186892,11.6979128 85.0681333,22.1186044 C95.5185116,32.5392961 95.5185116,49.4360028 85.0681333,59.8566944 C74.6186892,70.2783178 57.6753618,70.2783178 47.2259177,59.8566944 C36.7764736,49.4360028 36.7764736,32.5392961 47.2259177,22.1186044 Z" id="Stroke-10" stroke="#00A3E0" stroke-width="3.276"></path>
                <path d="M50.2925516,25.1768934 C59.0491577,16.4443818 73.2458275,16.4443818 82.0014994,25.1768934 C90.7581055,33.9094051 90.7581055,48.0670118 82.0014994,56.7985918 C73.2458275,65.5311034 59.0491577,65.5311034 50.2925516,56.7985918 C41.5359455,48.0670118 41.5359455,33.9094051 50.2925516,25.1768934 Z" id="Stroke-12" stroke="#00A3E0" stroke-width="1.872" stroke-linecap="round"></path>
                <path d="M49.4733189,37.4929678 C51.4090586,35.5625544 54.5471616,35.5625544 56.4819671,37.4929678 C58.4177067,39.4233811 58.4177067,42.5528494 56.4819671,44.4823311 C54.5471616,46.4127444 51.4090586,46.4127444 49.4733189,44.4823311 C47.5375793,42.5528494 47.5375793,39.4233811 49.4733189,37.4929678" id="Fill-14" fill="#FFFFFF"></path>
            </g>
        </g>
    </g>
</svg>